<svg width="111" height="23" viewBox="0 0 111 23" fill="none" xmlns="http://www.w3.org/2000/svg">
<path d="M6.60578 18.5509C4.77803 18.5509 3.22133 17.8621 1.93328 16.4821C0.645226 15.1021 0 13.4293 0 11.4613C0 9.49326 0.645226 7.81566 1.93328 6.42846C3.22133 5.04126 4.78283 4.34766 6.61777 4.34766C8.45271 4.34766 9.89187 4.98366 11.1272 6.25806V4.79406H14.0679V18.1069H11.1272V16.6549C9.87748 17.9125 8.37115 18.5461 6.60578 18.5533V18.5509ZM7.13347 7.24206C6.01572 7.24206 5.08506 7.64526 4.33429 8.45406C3.58352 9.26286 3.20934 10.2637 3.20934 11.4589C3.20934 12.6541 3.58352 13.6429 4.33429 14.4469C5.08266 15.2509 6.01332 15.6541 7.12148 15.6541C8.22964 15.6541 9.17229 15.2509 9.92546 14.4469C10.6786 13.6429 11.0552 12.6421 11.0552 11.4469C11.0552 10.2517 10.681 9.25086 9.93025 8.44686C9.18188 7.64286 8.24643 7.23966 7.13107 7.23966L7.13347 7.24206Z" fill="white"/>
<path d="M15.8359 4.79567H18.7766V6.20207C20.0263 4.95887 21.5087 4.34207 23.2261 4.35167C25.0538 4.35167 26.6057 5.04527 27.8866 6.43247C29.1674 7.81967 29.8079 9.49727 29.8079 11.4653C29.8079 13.4333 29.1674 15.1085 27.8866 16.4861C26.6057 17.8661 25.049 18.5549 23.2141 18.5549C21.6286 18.5477 20.235 18.0197 19.0333 16.9733V22.5509H15.8359V4.79567ZM22.7104 15.6581C23.8113 15.6581 24.7348 15.2549 25.4808 14.4509C26.2267 13.6469 26.5985 12.6509 26.5985 11.4629C26.5985 10.2749 26.2267 9.26447 25.4856 8.45807C24.7444 7.64927 23.8233 7.24607 22.7223 7.24607C21.6214 7.24607 20.7003 7.64927 19.9591 8.45327C19.218 9.25727 18.8462 10.2581 18.8462 11.4533C18.8462 12.6485 19.2156 13.6493 19.9591 14.4533C20.7003 15.2573 21.619 15.6605 22.7104 15.6605V15.6581Z" fill="white"/>
<path d="M31.1875 4.79567H34.1282V6.20207C35.3779 4.95887 36.8602 4.34207 38.5776 4.35167C40.4054 4.35167 41.9573 5.04527 43.2381 6.43247C44.519 7.81967 45.1594 9.49727 45.1594 11.4653C45.1594 13.4333 44.519 15.1085 43.2381 16.4861C41.9573 17.8661 40.4006 18.5549 38.5656 18.5549C36.9801 18.5477 35.5866 18.0197 34.3848 16.9733V22.5509H31.1875V4.79567ZM38.0619 15.6581C39.1629 15.6581 40.0863 15.2549 40.8323 14.4509C41.5783 13.6469 41.9501 12.6509 41.9501 11.4629C41.9501 10.2749 41.5783 9.26447 40.8371 8.45807C40.0959 7.64927 39.1749 7.24607 38.0739 7.24607C36.9729 7.24607 36.0519 7.64927 35.3107 8.45327C34.5695 9.25727 34.1978 10.2581 34.1978 11.4533C34.1978 12.6485 34.5671 13.6493 35.3107 14.4533C36.0519 15.2573 36.9706 15.6605 38.0619 15.6605V15.6581Z" fill="white"/>
<path d="M50.1155 7.6056V18.1056H46.9182V7.6056H45.7812V4.7928H46.9182C46.9806 3.3624 47.3859 2.2224 48.1367 1.3704C48.9402 0.456 50.058 0 51.4851 0L52.1304 0.0119999V3.1176H51.9673C51.3125 3.1176 50.8375 3.2472 50.5497 3.504C50.2595 3.7608 50.1155 4.1808 50.1155 4.7568V4.7928H52.0008V7.6056H50.1155Z" fill="white"/>
<path d="M53.1625 4.79406H56.1368V5.80206L56.2879 5.59086C56.8804 4.76286 57.7991 4.34766 59.0391 4.34766H59.2502V7.39566C58.3531 7.45806 57.6647 7.69326 57.1898 8.09886C56.6357 8.58366 56.3575 9.34926 56.3575 10.3957V18.1069H53.1602V4.79406H53.1625Z" fill="white"/>
<path d="M66.0941 18.5509C64.2663 18.5509 62.7096 17.8621 61.4216 16.4821C60.1335 15.1021 59.4883 13.4293 59.4883 11.4613C59.4883 9.49326 60.1335 7.81566 61.4216 6.42846C62.7096 5.04126 64.2711 4.34766 66.1061 4.34766C67.941 4.34766 69.3802 4.98366 70.6154 6.25806V4.79406H73.5561V18.1069H70.6154V16.6549C69.3658 17.9125 67.8594 18.5461 66.0941 18.5533V18.5509ZM66.6218 7.24206C65.504 7.24206 64.5733 7.64526 63.8226 8.45406C63.0718 9.26286 62.6976 10.2637 62.6976 11.4589C62.6976 12.6541 63.0718 13.6429 63.8226 14.4469C64.5709 15.2509 65.5016 15.6541 66.6098 15.6541C67.7179 15.6541 68.6606 15.2509 69.4137 14.4469C70.1669 13.6429 70.5435 12.6421 70.5435 11.4469C70.5435 10.2517 70.1693 9.25086 69.4185 8.44686C68.6702 7.64286 67.7347 7.23966 66.6193 7.23966L66.6218 7.24206Z" fill="white"/>
<path d="M75.5 4.79413H78.4743V5.89573C79.4481 4.85653 80.6018 4.34053 81.9355 4.34773C83.4082 4.34773 84.6363 4.90933 85.6197 6.03493L85.8524 6.31573L86.1115 6.03493C87.1501 4.90933 88.4957 4.34773 90.1459 4.34773C91.7962 4.34773 93.0746 4.85893 94.0341 5.88373C94.9911 6.90613 95.4708 8.29333 95.4708 10.0429V18.1045H92.2735V10.5685C92.2735 9.48373 92.0552 8.65813 91.6211 8.09653C91.1869 7.53493 90.5537 7.25173 89.7262 7.25173C88.8411 7.25173 88.1791 7.57093 87.7425 8.21173C87.3036 8.85253 87.0853 9.81253 87.0853 11.0941V18.1021H83.8879V10.9309C83.8879 9.72853 83.6649 8.81413 83.2211 8.18773C82.7774 7.56373 82.1274 7.24933 81.2687 7.24933C80.41 7.24933 79.7695 7.56853 79.3402 8.20933C78.9108 8.85013 78.6973 9.81013 78.6973 11.0917V18.0997H75.5V4.79413Z" fill="white"/>
<path d="M103.948 18.5509C102.027 18.5509 100.388 17.8621 99.0355 16.4821C97.6803 15.1021 97.0039 13.4293 97.0039 11.4613C97.0039 9.49326 97.6803 7.81566 99.0355 6.42846C100.391 5.04126 102.029 4.34766 103.948 4.34766C105.867 4.34766 107.517 5.04126 108.872 6.42846C110.227 7.81566 110.904 9.49326 110.904 11.4613C110.904 11.9389 110.865 12.4069 110.786 12.8677H100.41C100.59 13.4461 100.89 13.9693 101.312 14.4373C102.039 15.2341 102.943 15.6325 104.029 15.6325C104.701 15.6325 105.315 15.4765 105.874 15.1645C106.433 14.8525 106.843 14.4349 107.109 13.9117H110.482C110.052 15.3253 109.244 16.4533 108.057 17.2933C106.869 18.1333 105.5 18.5533 103.945 18.5533L103.948 18.5509ZM107.567 10.3117C107.411 9.60846 107.095 8.99646 106.618 8.47086C105.898 7.66686 105.008 7.26366 103.948 7.26366C102.888 7.26366 101.995 7.66686 101.278 8.47086C100.818 9.00126 100.496 9.61566 100.319 10.3117H107.567Z" fill="white"/>
</svg>
